<?xml version="1.0" standalone="no"?>
<!DOCTYPE svg PUBLIC "-//W3C//DTD SVG 1.1//EN" "http://www.w3.org/Graphics/SVG/1.1/DTD/svg11.dtd" >
<!--
2013-9-30: Created.
-->
<svg>
<metadata>
Created by iconfont
</metadata>
<defs>

<font id="iconfont" horiz-adv-x="1024" >
  <font-face
    font-family="iconfont"
    font-weight="500"
    font-stretch="normal"
    units-per-em="1024"
    ascent="896"
    descent="-128"
  />
    <missing-glyph />
    
    <glyph glyph-name="x" unicode="x" horiz-adv-x="1001"
d="M281 543q-27 -1 -53 -1h-83q-18 0 -36.5 -6t-32.5 -18.5t-23 -32t-9 -45.5v-76h912v41q0 16 -0.5 30t-0.5 18q0 13 -5 29t-17 29.5t-31.5 22.5t-49.5 9h-133v-97h-438v97zM955 310v-52q0 -23 0.5 -52t0.5 -58t-10.5 -47.5t-26 -30t-33 -16t-31.5 -4.5q-14 -1 -29.5 -0.5
t-29.5 0.5h-32l-45 128h-439l-44 -128h-29h-34q-20 0 -45 1q-25 0 -41 9.5t-25.5 23t-13.5 29.5t-4 30v167h911zM163 247q-12 0 -21 -8.5t-9 -21.5t9 -21.5t21 -8.5q13 0 22 8.5t9 21.5t-9 21.5t-22 8.5zM316 123q-8 -26 -14 -48q-5 -19 -10.5 -37t-7.5 -25t-3 -15t1 -14.5
t9.5 -10.5t21.5 -4h37h67h81h80h64h36q23 0 34 12t2 38q-5 13 -9.5 30.5t-9.5 34.5q-5 19 -11 39h-368zM336 498v228q0 11 2.5 23t10 21.5t20.5 15.5t34 6h188q31 0 51.5 -14.5t20.5 -52.5v-227h-327z" />
    

    
    <glyph glyph-name="baocun" unicode="&#58966;" d="M750.419135 748.207092 91.835261 748.207092c-15.495537 0-28.057136-12.540617-28.057136-28.034497l0-840.740186c0-15.47239 12.562622-27.641547 28.057136-27.641547l840.763378 0c15.452557 0 27.620166 12.169157 27.620166 27.641547L960.218805 538.022045 750.419135 748.207092zM652.195112 510.644511c0-7.725962-6.303824-14.007015-14.05057-14.007015L189.742046 496.637496c-7.736512 0-14.039313 6.281053-14.039313 14.007015L175.702733 622.280054c0 7.724938 6.302801 14.007015 14.039313 14.007015l448.401472 0c7.746745 0 14.05057-6.281053 14.05057-14.007015L652.194088 510.644511zM848.294197-22.282101c0-7.725962-6.25982-14.007015-14.007589-14.007015L189.742046-36.289116c-7.736512 0-14.039313 6.281053-14.039313 14.007015L175.702733 299.846504c0 7.747451 6.302801 14.007015 14.039313 14.007015l644.544561 0c7.746745 0 14.007589-6.258541 14.007589-14.007015L848.294197-22.282101zM791.827894 257.76099c0 7.725962-6.25982 14.007015-14.007589 14.007015l-83.911476 0c-7.747769 0-14.007589-6.281053-14.007589-14.007015l0-83.907015c0-7.747451 6.258797-14.007015 14.007589-14.007015l83.911476 0c7.746745 0 14.007589 6.258541 14.007589 14.007015L791.827894 257.76099z"  horiz-adv-x="1024" />

    
    <glyph glyph-name="shoucang" unicode="&#58915;" d="M1003.480152 494.774943c-8.05649 24.472368-31.550577 43.048445-69.841671 55.206346-0.49528 0.173962-0.991584 0.320295-1.518586 0.436952l-207.836559 51.221592c-45.065382 62.444191-90.186022 124.845403-135.309732 187.275267-0.176009 0.234337-0.581238 0.815575-0.788969 1.036609-21.715581 27.595498-48.768727 42.787502-76.146261 42.787502-19.788695 0-48.828079-7.749498-75.008344-45.033659L321.306378 616.918817c-51.835575-14.285355-103.671151-28.602432-155.535379-42.946115l-75.798337-20.927635c-35.314297-10.403954-57.613162-27.275203-66.281589-50.099025-9.136078-23.990391-2.713808-51.980885 19.584034-85.544305 0.525979-0.802272 1.13894-1.591241 1.780553-2.321882 45.326325-52.127218 90.683349-104.296391 136.007627-156.540266-2.305509-75.273381-4.696975-150.618393-7.091512-225.963405-3.443425-36.07359 2.306532-61.494563 17.540492-77.706803 11.558244-12.302187 27.640524-18.519796 47.77919-18.519796 15.439644 0 33.739429 3.66139 58.46046 11.82021l200.13004 73.989131c75.506694-25.582655 151.10037-51.105958 227.626277-76.878948 14.944364-4.376681 28.746718-6.580882 41.12463-6.580882 28.133757 0 75.971275 11.760858 79.763648 90.579995 0.029676 0.817622 0.029676 1.619894 0 2.422166-4.201695 67.172889-8.435113 134.200468-12.668531 201.271026l-0.054235 0.874927 147.418514 180.051749C1003.83217 443.640332 1011.35961 470.857207 1003.480152 494.774943M944.029132 441.276495L791.558555 255.06648900000005c-3.560082-4.348028-5.341658-9.821693-4.990664-15.352663l0.61296-9.499351c4.170996-66.632583 8.404414-133.236514 12.550851-199.999057-2.568499-46.436612-22.416546-46.436612-33.096792-46.436612-7.766894 0-17.075911 1.559519-26.677593 4.348028-78.278831 26.414603-156.527986 52.81181-234.717789 79.314417-5.223978 1.735527-10.885931 1.663896-16.052604-0.218988l-207.312626-76.673264c-18.62008-6.142907-32.57286-9.135054-42.581818-9.135054-9.689686 0-12.287861 2.744507-13.250792 3.764744-2.685155 2.861164-8.610098 12.855796-5.545296 43.852764 0.057305 0.481977 0.085958 0.961908 0.085958 1.444908 2.511193 78.468143 4.964058 156.920936 7.386224 235.300051 0.173962 5.517667-1.7519 10.916631-5.459339 15.149025-46.901193 54.067406-93.834108 108.063181-140.736325 162.013931-12.901845 19.730367-17.862833 35.08303-14.301727 44.465724 4.200672 11.062963 21.946848 18.358113 35.722596 22.415522l75.389014 20.837584c54.66604 15.089673 109.2451 30.16502 163.852812 45.209668 5.398964 1.489934 10.06831 4.801353 13.134135 9.326413l120.306017 177.511903c7.967462 11.382235 20.722974 24.953322 36.161594 24.953322 12.462846 0 26.327622-8.872065 38.700417-24.574698 46.75793-64.706721 93.541443-129.383766 140.243091-194.089463 3.210112-4.452405 7.938809-7.618515 13.366426-8.946766l215.455073-53.118801c22.151509-7.151887 36.07359-16.301268 39.22742-25.816992C962.035228 471.995123 956.520631 457.66372 944.029132 441.276495"  horiz-adv-x="1024" />

    
    <glyph glyph-name="cntencentwechat" unicode="&#58936;" d="M862.049248 502.18256c14.595825 0 29.053048-1.055505 43.392993-2.601447C866.452517 678.814431 672.303524 812 450.679411 812 202.912885 812 0 645.294143 0 433.585382c0-122.150742 67.477703-222.509032 180.310146-300.360539l-45.056213-133.825269 157.536821 77.968785c56.400229-10.981519 101.627029-22.282888 157.877995-22.282888 14.148035 0 28.189453 0.671685 42.102931 1.759175-8.8172 29.746057-13.913478 60.899453-13.913478 93.225634C478.868864 344.432506 647.888302 502.18256 862.049248 502.18256zM619.688188 622.808683c33.946754 0 56.378906-22.016347 56.378906-55.515311 0-33.349701-22.432152-55.717882-56.378906-55.717882-33.776167 0-67.64829 22.368182-67.64829 55.717882C552.039898 600.792337 585.901359 622.808683 619.688188 622.808683zM304.26271 511.575491c-33.797491 0-67.872185 22.368182-67.872185 55.717882 0 33.498964 34.085356 55.515311 67.872185 55.515311 33.797491 0 56.250966-22.016347 56.250966-55.515311C360.503014 533.943672 338.060201 511.575491 304.26271 511.575491zM1273.376438 155.379791c0 177.889947-180.299485 322.909969-382.828549 322.909969-214.480795 0-383.361633-145.020022-383.361633-322.909969 0-178.156489 168.880837-322.814014 383.361633-322.814014 44.853642 0 90.13375 11.130782 135.23261 22.282888l123.654037-66.838003-33.914769 111.233193C1205.962705-33.779541 1273.376438 55.074809 1273.376438 155.379791zM766.275475 211.07635c-22.453475 0-45.066875 22.016347-45.066875 44.533791 0 22.133625 22.6134 44.469821 45.066875 44.469821 34.074694 0 56.378906-22.336197 56.378906-44.469821C822.654381 233.082034 800.350169 211.07635 766.275475 211.07635zM1014.201926 211.07635c-22.304212 0-44.800333 22.016347-44.800333 44.533791 0 22.133625 22.496122 44.469821 44.800333 44.469821 33.754844 0 56.378906-22.336197 56.378906-44.469821C1070.580832 233.082034 1047.946109 211.07635 1014.201926 211.07635z"  horiz-adv-x="1274" />

    
    <glyph glyph-name="icon19" unicode="&#58893;" d="M940.571-52.693l-214.475 214.722c44.778 60.855 69.263 134.077 69.263 211.012 0 95.732-37.354 185.78-104.889 253.311-67.781 67.536-157.825 104.889-253.557 104.889s-185.78-37.354-253.311-104.889c-139.518-139.518-139.518-366.859 0-506.626 67.536-67.536 157.579-104.889 253.311-104.889 77.18 0 150.155 24.487 211.257 69.263l214.475-214.722c21.52-21.52 56.403-21.52 77.676 0 21.77 21.52 21.77 56.403 0.25 77.921zM252.866 188.744c-101.425 101.673-101.425 266.916 0 368.342 49.227 49.227 114.535 76.192 184.295 76.192 69.511 0 134.819-26.966 184.047-76.192 49.227-49.227 76.443-114.535 76.443-184.295 0-69.762-27.211-135.065-76.443-184.295-49.227-49.227-114.535-76.192-184.047-76.192-69.762 0.25-135.065 27.211-184.295 76.443z"  horiz-adv-x="1024" />

    
    <glyph glyph-name="help" unicode="&#58895;" d="M511.999 723.506c-240.867 0-436.128-195.242-436.128-436.129 0-240.848 195.26-436.128 436.128-436.128 240.868 0 436.129 195.28 436.129 436.128 0 240.887-195.26 436.129-436.129 436.129v0zM510.337 69.914c-24.863 0-45.013 20.73-45.013 46.282 0 25.557 20.151 46.282 45.013 46.282 24.872 0 45.023-20.725 45.023-46.282 0-25.552-20.151-46.282-45.023-46.282v0zM636.078 360.774c-6.209-11.959-13.593-22.255-22.136-30.911-8.547-8.699-23.899-23.285-46.025-43.835-6.124-5.782-11.027-10.862-14.715-15.261-3.687-4.367-6.438-8.377-8.233-12.029-1.82-3.621-3.203-7.28-4.187-10.899-0.983-3.654-2.475-10.044-4.457-19.201-3.42-19.414-14.135-29.105-32.136-29.105-9.351 0-17.229 3.164-23.61 9.516-6.399 6.353-9.583 15.755-9.583 28.284 0 15.655 2.333 29.249 7.008 40.714 4.685 11.498 10.89 21.575 18.635 30.236 7.744 8.661 18.183 18.99 31.31 30.949 11.521 10.434 19.85 18.316 24.972 23.638 5.141 5.326 9.454 11.251 12.961 17.784 3.516 6.528 5.269 13.626 5.269 21.256 0 14.944-5.359 27.543-16.059 37.802-10.718 10.257-24.526 15.403-41.445 15.403-19.808 0-34.385-5.184-43.735-15.547-9.364-10.362-17.275-25.59-23.765-45.782-6.119-21.081-17.727-31.624-34.827-31.624-10.067 0-18.586 3.692-25.51 11.075-6.927 7.379-10.391 15.366-10.391 23.918 0 17.746 5.483 35.706 16.459 53.913 10.98 18.173 27.011 33.258 48.067 45.184 21.048 11.964 45.626 17.926 73.701 17.926 26.103 0 49.127-5.008 69.111-14.98 19.979-9.973 35.41-23.566 46.296-40.709 10.89-17.18 16.339-35.848 16.339-56.007-0-15.864-3.106-29.78-9.317-41.706v0zM636.078 360.774z"  horiz-adv-x="1024" />

    
    <glyph glyph-name="jia" unicode="&#59146;" d="M830.15306 329.753651 543.132044 329.753651 543.132044 616.774667 481.733673 616.774667 481.733673 329.753651 194.711634 329.753651 194.711634 268.354256 481.733673 268.354256 481.733673-18.665737 543.132044-18.665737 543.132044 268.354256 830.15306 268.354256Z"  horiz-adv-x="1024" />

    
    <glyph glyph-name="gouwucheshoppingcart" unicode="&#58942;" d="M874.576 538.898c-14.141 14.863-33.442 23.017-54.601 23.017h-478.3c-15.173 0-27.662-11.56-27.662-25.701s12.386-25.701 27.662-25.701h478.197c5.161 0 9.702-1.858 13.315-5.574 5.47-5.78 8.051-15.276 7.019-23.946l-43.557-231.615c-1.548-11.457-13.108-21.469-26.836-21.572l-374.672-25.701c-15.069-1.135-26.526-13.315-25.494-27.559 1.032-13.521 13.212-23.843 27.559-23.843 0.619 0 1.445 0 2.168 0.206l372.711 25.494c39.841 0 74.728 29.21 79.476 65.232l43.557 231.615c2.993 24.875-4.335 48.614-20.54 65.645zM811.202 99.303h-448.677c-11.663 0-23.327 10.012-24.875 21.985l-47.066 308.098-26.526 142.85c-4.851 37.364-40.254 66.677-80.508 66.677h-35.196c-15.173 0-27.662-11.56-27.662-25.701s12.386-25.701 27.662-25.701h35.196c11.973 0 24.256-10.115 25.907-22.707l26.63-143.469 46.86-306.859c4.851-37.364 39.841-66.677 79.682-66.677h448.574c15.379 0 27.662 11.56 27.662 25.701 0 14.347-12.283 25.804-27.662 25.804zM320-29.2c0 0 0 0 0 0 0-27.476 22.274-49.75 49.75-49.75 27.476 0 49.75 22.274 49.75 49.75 0 0 0 0 0 0 0 0 0 0 0 0 0 27.476-22.274 49.75-49.75 49.75-27.476 0-49.75-22.274-49.75-49.75s0 0 0 0zM706.748-29.2c0 0 0 0 0 0 0-27.476 22.274-49.75 49.75-49.75 27.476 0 49.75 22.274 49.75 49.75 0 0 0 0 0 0 0 0 0 0 0 0 0 27.476-22.274 49.75-49.75 49.75-27.476 0-49.75-22.274-49.75-49.75s0 0 0 0z"  horiz-adv-x="1024" />

    
    <glyph glyph-name="suo" unicode="&#58944;" d="M750.750639 503.673613 750.750639 629.630327c0 92.798523-59.82248 178.059372-147.002029 209.826889-87.420025 31.855522-187.779757 4.497431-247.409856-66.723657-33.43346-39.932478-52.039213-91.01183-52.039213-143.103232L304.299541 503.674637l-114.006544 0 0-554.871413 674.455999 0L864.748996 503.673613 750.750639 503.673613zM332.999187 629.630327c0 105.889679 88.638783 194.530508 194.520275 194.530508 105.882516 0 194.530508-88.63469 194.530508-194.530508L722.04997 503.674637l-389.050784 0L332.999187 629.630327 332.999187 629.630327zM836.048327-22.497131 218.992643-22.497131 218.992643 474.973968l85.306898 0 446.451098 0 85.297688 0L836.048327-22.497131 836.048327-22.497131zM541.870308 317.926142 513.170662 317.926142 513.170662 294.793282 489.655086 294.793282 489.655086 266.093637 513.170662 266.093637 513.170662 126.590396 541.870308 126.590396 541.870308 266.093637 565.395094 266.093637 565.395094 294.793282 541.870308 294.793282Z"  horiz-adv-x="1024" />

    
    <glyph glyph-name="iconfontwancheng" unicode="&#59138;" d="M512 896C229.231 896 0 666.769 0 384s229.231-512 512-512 512 229.231 512 512S794.769 896 512 896zM791.072 512.222 474.287 195.439c-12.496-12.496-32.758-12.496-45.254 0L232.928 391.543c-12.498 12.495-12.498 32.758 0 45.254l15.084 15.084c12.498 12.498 32.76 12.498 45.256 0l158.391-158.391 279.07 279.07c12.497 12.496 32.76 12.496 45.256 0l15.084-15.084C803.569 544.979 803.569 524.719 791.072 512.222z"  horiz-adv-x="1024" />

    
    <glyph glyph-name="iconfontxiangxia1copy19" unicode="&#58885;" d="M273.876092 886.5185 775.427114 393.481461 273.876092-99.555573 219.474055-46.07522 666.623038 393.481461 219.474055 833.039953 273.876092 886.5185Z"  horiz-adv-x="1024" />

    
    <glyph glyph-name="xinjian" unicode="&#58906;" d="M484.636862 438.440747l71.382099 0 0-380.704526-71.382099 0 0 380.704526ZM329.975648 283.779533l380.704526 0 0-71.382099-380.704526 0 0 71.382099ZM853.49196-128l-666.232921 0c-45.922484 0-83.279115 37.356632-83.279115 83.279115l0 856.585184c0 45.922484 37.356632 83.279115 83.279115 83.279115l499.674691 0 0-245.030951 249.837345 0 0-694.833349C936.771075-90.643368 899.414444-128 853.49196-128zM187.211451 823.808904c-6.567153 0-11.897016-5.329863-11.897016-11.897016l0-856.585184c0-6.519565 5.329863-11.897016 11.897016-11.897016l666.232921 0c6.519565 0 11.897016 5.377451 11.897016 11.897016L865.341389 578.730365l-209.38749 0c-22.318803 0-40.449856 18.131053-40.449856 40.449856l0 204.628683L187.211451 823.808904zM687.620202 895.930264l249.838326-245.043838-50.015067-50.993653-249.838326 245.043838 50.015067 50.993653Z"  horiz-adv-x="1024" />

    
    <glyph glyph-name="x" unicode="&#59185;" d="M566.974567 387.067872l380.635113 380.63102c15.462157 15.465227 15.464203 40.536228 0.001023 56.001455-15.46318 15.464203-40.538275 15.46318-56.002478 0L510.977205 443.066257 130.345162 823.700347c-15.46318 15.46318-40.537252 15.46318-56.001455 0-15.462157-15.465227-15.464203-40.536228 0-56.000432L454.977797 387.065825 74.3478 6.434805c-15.462157-15.464203-15.46011-40.533159 0.002047-55.996338 7.729032-7.730055 17.86488-11.597129 27.996634-11.598152 10.134825 0.00307 20.269649 3.868097 27.998681 11.597129l380.629997 380.629997 380.635113-380.628974c7.728008-7.730055 17.863856-11.597129 27.998681-11.597129 10.130731-0.001023 20.267603 3.867074 27.996634 11.596106 15.462157 15.46318 15.462157 40.534182 0 55.997362L566.974567 387.067872z"  horiz-adv-x="1024" />

    
    <glyph glyph-name="lajitong" unicode="&#59020;" d="M993.196 802.198l-260.45 0L732.746 813.511c0 36.405-23.837 76.729-56.237 76.729L348.751 890.24c-32.377 0-56.215-40.323-56.215-76.729l0-11.313L32.086 802.198c-12.128 0-22.01-9.905-22.01-22.01s9.883-22.01 22.01-22.01l961.11 0c12.106 0 22.01 9.905 22.01 22.01S1005.302 802.198 993.196 802.198zM336.557 813.511c0 12.128 1.387 32.708 12.194 32.708l327.78 0c10.807 0 12.194-20.58 12.194-32.708l0-11.313L336.557 802.198 336.557 813.511zM512.641 79.528 512.641 79.528c-12.172 0-22.01 9.861-22.01 22.01L490.631 585.593c0 12.15 9.839 22.01 22.01 22.01l0 0c12.172 0 22.01-9.861 22.01-22.01l0-484.055C534.652 89.366 524.813 79.528 512.641 79.528zM336.888 163.894 336.888 163.894c-12.15 0-22.01 9.861-22.01 22.01l0 315.3c0 12.15 9.861 22.01 22.01 22.01l0 0c12.15 0 22.01-9.861 22.01-22.01l0-315.3C358.898 173.755 349.015 163.894 336.888 163.894zM688.395 163.894 688.395 163.894c-12.15 0-22.01 9.861-22.01 22.01l0 315.3c0 12.15 9.861 22.01 22.01 22.01l0 0c12.15 0 22.01-9.861 22.01-22.01l0-315.3C710.406 173.755 700.545 163.894 688.395 163.894zM886.82 692.146c-12.172 0-22.01-9.861-22.01-22.01 0-5.877 0-9.751 0-14.813l0-649.354c0-46.508-37.704-84.19-84.168-84.19L248.515-78.221c-48.621 0-88.042 39.421-88.042 88.042L160.473 655.322c0 5.062 0 9.465 0 14.813 0 12.15-9.839 22.01-22.01 22.01s-22.01-9.861-22.01-22.01c0-0.264 0.132-0.462 0.154-0.748-0.044-0.044-0.088-0.088-0.154-0.154l0-663.286c0-70.786 57.381-128.189 128.189-128.189l532.126 0c72.921 0 132.063 59.142 132.063 132.063L908.831 670.135C908.83 682.285 898.969 692.146 886.82 692.146z"  horiz-adv-x="1024" />

    
    <glyph glyph-name="add" unicode="&#58998;" d="M225.3824 360.0384l262.656 0 0-262.656c0-11.264 9.216-20.48 20.48-20.48l6.9632 0c11.264 0 20.48 9.216 20.48 20.48L535.9616 360.0384l262.656 0c11.264 0 20.48 9.216 20.48 20.48l0 6.9632c0 11.264-9.216 20.48-20.48 20.48L535.9616 407.9616 535.9616 670.6176c0 11.264-9.216 20.48-20.48 20.48l-6.9632 0c-11.264 0-20.48-9.216-20.48-20.48l0-262.656L225.3824 407.9616c-11.264 0-20.48-9.216-20.48-20.48l0-6.9632C204.9024 369.2544 214.1184 360.0384 225.3824 360.0384zM65.536 830.464l0-892.928 892.928 0L958.464 830.464 65.536 830.464zM917.504-21.504 106.496-21.504 106.496 789.504l811.008 0L917.504-21.504z"  horiz-adv-x="1024" />

    
    <glyph glyph-name="jiantou1-copy-copy-copy" unicode="&#59303;" d="M945.557 422.032h-733.558l187.319 180.328c4.795 4.796 4.795 12.57 0 17.367l-37.627 37.627c-4.796 4.795-12.57 4.795-17.367 0l-235.807-227.011c-0.272-0.229-0.541-0.465-0.797-0.721l-1.259-1.259-36.367-35.009c-2.567-2.568-3.746-5.99-3.564-9.352-0.188-3.369 0.991-6.8 3.562-9.372l37.627-36.267c0.243-0.241 0.496-0.463 0.752-0.68l235.852-227.050c4.796-4.797 12.57-4.797 17.367 0l37.627 37.627c4.795 4.795 4.795 12.569 0 17.367l-185.562 178.637h731.8c6.783 0 12.28 5.498 12.28 12.28v53.213c0 6.781-5.497 12.28-12.28 12.28z"  horiz-adv-x="1024" />

    
    <glyph glyph-name="sanjiaoxing" unicode="&#59068;" d="M130.046357 599.275995 507.701602 192.954873 891.904984 596.991975Z"  horiz-adv-x="1024" />

    
    <glyph glyph-name="yj" unicode="&#58960;" d="M512 690.841434c-222.884276 0-416.184771-124.58446-511.978511-306.84348 95.79374-182.254927 289.095257-306.84041 511.978511-306.84041s416.184771 124.58446 511.978511 306.84041C928.184771 566.256974 734.883253 690.841434 512 690.841434zM512 178.762639c-115.177206 0-208.543663 91.88778-208.543663 205.235314 0 113.350604 93.367481 205.238384 208.543663 205.238384 115.174136 0 208.541617-91.88778 208.541617-205.238384C720.540593 270.651442 627.174136 178.762639 512 178.762639z"  horiz-adv-x="1024" />

    
    <glyph glyph-name="denglu-copy" unicode="&#58884;" d="M512 896c-280.278 0-512-231.722-512-512s231.722-512 512-512 512 231.722 512 512-231.722 512-512 512v0zM512 680.463c75.399 0 134.744-59.345 134.744-134.744 0-75.399-59.345-134.744-134.744-134.744-75.399 0-134.744 59.345-134.744 134.744 0 75.399 59.345 134.744 134.744 134.744v0zM743.722 173.726c-21.58-43.16-129.349-80.794-231.722-86.189-107.769 5.395-215.537 43.16-237.117 86.189-48.555 91.715 113.164 183.299 237.117 183.299 123.954 0 280.278-91.584 231.722-183.299v0zM743.722 173.726z"  horiz-adv-x="1024" />

    
    <glyph glyph-name="arrow-left" unicode="&#58883;" d="M694.475 63.547l-56.285-58.26-393.996 392.021 393.996 392.021 56.285-58.26-331.786-333.761z"  horiz-adv-x="1024" />

    
    <glyph glyph-name="jiahao" unicode="&#58897;" d="M512-128c-282.624 0-512 229.376-512 512s229.376 512 512 512 512-229.376 512-512-229.376-512-512-512z m0 983.04c-259.584 0-471.04-211.456-471.04-471.04s211.456-471.04 471.04-471.04 471.04 211.456 471.04 471.04-211.456 471.04-471.04 471.04z m204.8-491.52h-184.32v-184.32c0-11.264-9.216-20.48-20.48-20.48s-20.48 9.216-20.48 20.48v184.32h-184.32c-11.264 0-20.48 9.216-20.48 20.48s9.216 20.48 20.48 20.48h184.32v184.32c0 11.264 9.216 20.48 20.48 20.48s20.48-9.216 20.48-20.48v-184.32h184.32c11.264 0 20.48-9.216 20.48-20.48s-9.216-20.48-20.48-20.48z"  horiz-adv-x="1024" />

    
    <glyph glyph-name="qq-" unicode="&#58911;" d="M156.363077 495.908461c-6.350659-12.701319 0-25.402637 0-76.207912 0-12.701319-63.506593-76.207912-82.558572-146.065165-25.402637-63.506593-25.402637-133.363846 12.701319-165.117143 38.103956-25.402637 69.857253 88.909231 76.207912 76.207912 0-6.350659 6.350659-12.701319 6.350659-25.402637 12.701319-31.753297 31.753297-69.857253 57.155934-101.61055 6.350659-6.350659-38.103956-19.051978-57.155934-63.506593-25.402637-44.454615 6.350659-120.662528 127.013187-120.662528 158.766484 0 190.51978 57.155934 196.87044 57.155934h50.805275c6.350659 0 82.558571-69.857253 190.51978-57.155934 184.169121 19.051978 152.415824 82.558571 139.714506 120.662528-12.701319 38.103956-69.857253 57.155934-63.506594 63.506593 44.454615 50.805275 50.805275 76.207912 63.506594 120.662528 6.350659 19.051978 50.805275-101.61055 82.558571-76.207912 12.701319 12.701319 38.103956 57.155934 12.701319 165.117143-25.402637 101.61055-76.207912 127.013187-76.207912 146.065165V489.557802c-12.701319 38.103956-31.753297 25.402637-31.753297 38.103956C854.935605 730.882857 702.51978 896 518.350659 896S181.765714 730.882857 181.765714 527.661758c0-12.701319-12.701319 0-25.402637-31.753297z"  horiz-adv-x="1024" />

    
    <glyph glyph-name="pinglun" unicode="&#58949;" d="M889.408 847.04H134.592C69.568 847.04 16.384 795.52 16.384 732.416v-539.904c0-63.04 53.184-114.624 118.208-114.624h235.648l97.92-134.912a54.528 54.528 0 0 1 87.68 0l97.92 134.912h235.648c65.024 0 118.208 51.584 118.208 114.624V732.416c0 63.04-53.184 114.624-118.208 114.624zM666.112 263.04h-288a40.832 40.832 0 0 0-41.408 40.192c0 22.208 18.56 40.192 41.408 40.192h288c22.912 0 41.472-17.984 41.472-40.192s-18.56-40.192-41.472-40.192z m120.064 274.56H258.112a40.832 40.832 0 0 0-41.408 40.192c0 22.144 18.56 40.192 41.408 40.192h528c22.912 0 41.472-18.048 41.472-40.192 0-22.208-18.56-40.192-41.408-40.192z"  horiz-adv-x="1024" />

    
    <glyph glyph-name="icon-top-copy" unicode="&#58894;" d="M645.667 727.998l-427.001-355 427.001-356v711z"  horiz-adv-x="1024" />

    
    <glyph glyph-name="shouji" unicode="&#58941;" d="M775.267009-64.837448H248.732991c-51.759851 0-93.866854 42.107003-93.866854 93.857644V738.970594c0 51.759851 42.107003 93.866854 93.866854 93.866854h526.534018c51.759851 0 93.866854-42.107003 93.866854-93.866854v-709.951421c0-51.749618-42.107003-93.856621-93.866854-93.856621zM248.732991 793.80855c-30.234605 0-54.836933-24.603351-54.836933-54.836933v-709.951421c0-30.234605 24.603351-54.827723 54.836933-54.827722h526.534018c30.234605 0 54.836933 24.593118 54.836933 54.827722V738.970594c0 30.234605-24.603351 54.836933-54.836933 54.836932H248.732991zM616.433514 79.340255H407.575696c-10.776438 0-19.514449 8.738012-19.51445 19.51445s8.738012 19.514449 19.51445 19.514449H616.433514c10.776438 0 19.514449-8.738012 19.514449-19.514449 0.001023-10.776438-8.736988-19.514449-19.514449-19.51445z"  horiz-adv-x="1024" />

    
    <glyph glyph-name="fanhui" unicode="&#58880;" d="M532.526499-8.817574L139.506311 384.202615 532.526499 777.222803c12.258185 12.258185 12.432147 32.892131-0.187265 45.51052-12.707416 12.707416-32.995485 12.703323-45.511543 0.187265L75.166957 411.260877c-7.120165-7.120165-10.163477-17.065677-8.990768-26.624381-1.500167-9.755178 1.5104-20.010753 8.990768-27.491121l411.660734-411.660734c12.258185-12.258185 32.892131-12.432147 45.511543 0.187265 12.707416 12.707416 12.7023 32.995485 0.187265 45.51052z"  horiz-adv-x="1024" />

    
    <glyph glyph-name="gengduo" unicode="&#58882;" d="M492.675886-8.817574L885.696074 384.202615 492.675886 777.222803c-12.258185 12.258185-12.432147 32.892131 0.187265 45.51052 12.707416 12.707416 32.995485 12.703323 45.511543 0.187265l411.660734-411.660734c7.120165-7.120165 10.163477-17.065677 8.990768-26.624381 1.500167-9.755178-1.5104-20.010753-8.990768-27.491121L538.374694-54.515359c-12.258185-12.258185-32.892131-12.432147-45.511543 0.187265-12.707416 12.707416-12.703323 32.995485-0.187265 45.51052z"  horiz-adv-x="1024" />

    
    <glyph glyph-name="xin" unicode="&#59584;" d="M928 704H96c-17.6 0-32-14.4-32-32v-576c0-17.6 14.4-32 32-32h832c17.6 0 32 14.4 32 32V672c0 17.6-14.4 32-32 32z m-32-128L512 384 128 576v64l384-192 384 192v-64z"  horiz-adv-x="1024" />

    
    <glyph glyph-name="tupian-xianxing" unicode="&#59602;" d="M928 704H96c-17.6 0-32-14.4-32-32v-576c0-17.6 14.4-32 32-32h832c17.6 0 32 14.4 32 32V672c0 17.6-14.4 32-32 32z m-32-576H128V640h768v-512zM447.2 416L520 288.8l128 221.6L832 192H317.6l129.6 224zM192 480c0 52.8 43.2 96 96 96s96-43.2 96-96-43.2-96-96-96-96 43.2-96 96z"  horiz-adv-x="1024" />

    
    <glyph glyph-name="haoping-yuankuang" unicode="&#59608;" d="M512 832C264.8 832 64 631.2 64 384s200.8-448 448-448 448 200.8 448 448S759.2 832 512 832zM340.8 200.8c0-4.8-4-9.6-8.8-10.4l-64-2.4c-6.4-0.8-12.8 4-12.8 10.4v240c0 6.4 5.6 11.2 12 10.4l64-2.4c4.8-0.8 8.8-5.6 8.8-10.4v-235.2zM720 218.4s-14.4-49.6-32-49.6c0 0-224 21.6-284 21.6-10.4 0-19.2 8.8-19.2 19.2V437.6c0 7.2 3.2 13.6 9.6 16.8 52.8 32 145.6 112 145.6 180 0 3.2-4 44 27.2 44 0 0 78.4-18.4 29.6-212h136.8s31.2 3.2 31.2-32.8c0 0 1.6-44-44.8-215.2z"  horiz-adv-x="1024" />

    
    <glyph glyph-name="notice" unicode="&#58923;" d="M512 12.8c38.4 0 76.8 32 76.8 76.8H435.2c0-44.8 38.4-76.8 76.8-76.8z m243.2 224V448c0 115.2-83.2 211.2-185.6 236.8v25.6c0 32-25.6 57.6-57.6 57.6s-57.6-25.6-57.6-57.6v-25.6C345.6 659.2 268.8 563.2 268.8 448v-211.2L192 160v-38.4h640V160l-76.8 76.8z"  horiz-adv-x="1024" />

    
    <glyph glyph-name="shuaxin" unicode="&#58908;" d="M827.5 65.7c-176.1-173.8-459.6-171.8-633.3 4.4-173.7 176.2-171.7 460 4.4 633.7 176.1 173.8 459.6 171.8 633.3-4.4 173.6-176.1 171.7-459.9-4.4-633.7zM513.1 620c-36.4 0-70.7-8.5-101.4-23.3l15.2 36.1-43.5 18.3-54.8-130.4 5.5-2.3-1.2-3.9 37.3-11.3 1.9-0.8 0.1 0.2 16.2-4.9v-4.8c1.1 1.3 2.4 2.5 3.6 3.7l76.3-23.2 13.7 45.1-43.6 13.2c22.4 11.4 47.6 18.1 74.5 18.1 91.2 0 165.1-74 165.1-165.2 0-91.2-73.9-165.2-165.1-165.2-83.1 0-151.6 61.5-163.2 141.4h-70.6C291 242 391.2 149.2 513.1 149.2c129.9 0 235.2 105.4 235.2 235.4C748.3 514.7 643 620 513.1 620z"  horiz-adv-x="1024" />

    
    <glyph glyph-name="A-ZICONCopy" unicode="&#58930;" d="M1090.464 644.979c-6.213 6.213-12.428 6.213-12.428 6.213-12.428 0-31.069-12.428-43.497-24.854l-397.682-379.040c-12.428-12.428-68.352-99.42-68.352-105.635v0c6.213 0 93.206 55.924 105.635 68.352l397.682 379.040c18.641 12.428 31.069 37.283 18.641 55.924M841.914 526.917c0-31.069-24.854-55.924-55.924-55.924s-55.924 24.854-55.924 55.924 24.854 55.924 55.924 55.924 55.924-24.854 55.924-55.924M226.749 328.076c-31.069 0-55.924 24.854-55.924 55.924s24.854 55.924 55.924 55.924 62.138-24.854 62.138-55.924-24.854-55.924-62.138-55.924M313.742 526.917c0 31.069 24.854 55.924 55.924 55.924s55.924-24.854 55.924-55.924-18.641-55.924-49.711-55.924-62.138 24.854-62.138 55.924M518.797 582.842c0 31.069 24.854 55.924 55.924 55.924s55.924-24.854 55.924-55.924-24.854-55.924-55.924-55.924-55.924 24.854-55.924 55.924zM972.403 389.593c-24.854-167.772-186.414-341.758-410.11-341.758-43.497 0-86.993 6.213-124.276 24.854-37.283 12.428-55.924 31.069-62.138 43.497 0 6.213-6.213 12.428-6.213 18.641-6.213 18.641-12.428 43.497-24.854 62.138-18.641 37.283-49.711 43.497-74.565 43.497h-24.854c-12.428-6.213-31.069-6.213-43.497-6.213-31.069 0-80.779 6.213-80.779 55.924-6.213 260.979 211.268 403.897 428.751 428.751h49.711c62.138 0 130.49-12.428 180.201-31.069 12.428-6.213 18.641-6.213 43.497-18.641 31.069-12.428 55.924-37.283 74.565-55.924l37.283 62.138c-18.641 18.641-49.711 37.283-80.779 55.924-31.069 12.428-37.283 18.641-49.711 24.854-55.924 18.641-130.49 37.283-205.055 37.283h-55.924c-136.703-24.854-254.766-74.565-341.758-155.344-99.42-93.206-155.344-211.268-149.131-347.972 0-37.283 18.641-74.565 49.711-93.206 24.854-18.641 62.138-31.069 99.42-31.069 18.641 0 37.283 0 55.924 6.213h12.428c12.428 0 18.641-12.428 31.069-55.924 0-6.213 6.213-12.428 6.213-24.854 12.428-37.283 43.497-68.352 99.42-86.993 43.497-18.641 99.42-24.854 149.131-24.854 62.138 0 124.276 12.428 180.201 37.283 55.924 18.641 105.635 49.711 149.131 93.206 43.497 37.283 74.565 80.779 99.42 130.49 24.854 49.711 43.497 99.42 49.711 155.344v12.428l-62.138-18.641z"  horiz-adv-x="1126" />

    
    <glyph glyph-name="tihuan" unicode="&#60016;" d="M613.575 735.836c97.72-9.837 176.229-68.661 192.912-169.604h-56.538l91.253-136.037 91.422 135.974h-63.068C852.872 702.132 749.95 790.584 620.021 803.149c-17.947 1.412-34.715-14.04-34.715-33.693 1.179-16.852 12.765-32.155 28.269-33.62zM472.156 804.624H154.371c-17.958 0-32.135-15.44-32.135-35.094v-302.84c0-19.654 14.103-35.021 32.135-35.021h317.648c18.021 0 32.124 15.44 32.124 35.094V769.456c0 19.654-14.103 35.105-32.124 35.105h0.137v0.063z m-61.879-771.187c-109.295 9.816-192.912 82.765-196.841 203.276h60.467l-91.19 136.059-91.337-135.911h60.467c2.528-155.69 111.823-256.634 252.126-270.663 17.958-1.432 34.726 14.029 34.726 33.684 0.263 16.726-11.817 31.112-28.343 33.683l-0.075-0.128z m460.542 304.304c16.705 0 32.062-15.504 32.062-35.094v-304.24c0-19.591-14.093-35.031-32.124-35.031H553.119c-18.116 0-32.146 15.44-32.146 35.094V302.647c0 19.506 14.029 35.01 32.146 35.01h317.7v0.084z m-46.995-56.221H599.841c-12.724 0-22.666-10.954-22.666-24.709v-214.609c0-13.819 9.942-24.772 22.666-24.772h224.046c12.702 0 22.666 10.953 22.666 24.772V256.811c0 13.755-10.807 24.709-22.581 24.709h-0.148z m-398.39 467.514h0.074c11.786 0 22.655-10.954 22.582-24.709v-214.672c0-13.829-9.953-24.772-22.655-24.772h-224.13c-12.702 0-22.655 10.943-22.655 24.772V724.325c0 13.755 9.953 24.709 22.655 24.709h224.129z"  horiz-adv-x="1024" />

    
    <glyph glyph-name="huifu" unicode="&#58954;" d="M1024 53.682424S927.992242 610.428121 428.807758 610.428121V824.754424L0 437.651394 428.807758 79.282424v243.215515c268.784485 0 454.407758-19.207758 595.192242-268.815515z"  horiz-adv-x="1024" />

    
    <glyph glyph-name="shuaxin1" unicode="&#58888;" d="M960.907 152.876h-0.093l-81.25-0.289a434.492 434.492 0 0 1 41.653 87.153c16.01 46.057 24.13 94.351 24.13 143.543 0 58.982-11.558 116.213-34.352 170.105-22.011 52.04-53.517 98.77-93.64 138.895-40.125 40.125-86.857 71.63-138.896 93.641-53.89 22.794-111.123 34.351-170.104 34.351-49.96 0-98.968-8.368-145.663-24.872-13.32-4.708-20.303-19.324-15.595-32.646 4.71-13.322 19.326-20.301 32.646-15.595 41.204 14.563 84.475 21.948 128.612 21.948 103.058 0 199.948-40.133 272.82-113.007C854.05 583.23 894.183 486.34 894.183 383.282c0-43.458-7.164-86.1-21.293-126.742a383.346 383.346 0 0 0-36.016-75.689l-25.499 73.663c-4.622 13.351-19.189 20.425-32.544 15.807-13.352-4.622-20.428-19.192-15.807-32.544l41.141-118.853c1.378-3.98 3.64-7.4 6.489-10.122 4.636-4.67 11.058-7.562 18.153-7.562h0.094l132.096 0.47c14.129 0.05 25.542 11.545 25.492 25.673-0.05 14.1-11.493 25.493-25.581 25.493zM675.533 35.45c-52.353-25.213-108.6-37.996-167.179-37.996-103.058 0-199.949 40.133-272.823 113.007-72.872 72.872-113.005 169.762-113.005 272.82 0 83.81 27.117 164.704 76.924 231.18l33.394-93.504c3.736-10.463 13.586-16.986 24.093-16.986 2.855 0 5.76 0.482 8.603 1.497 13.306 4.753 20.24 19.391 15.488 32.697L235.315 666.16c-4.124 11.547-15.692 18.29-27.377 16.766a25.628 25.628 0 0 1-5.857 0.682h-0.089l-137.135-0.469c-14.129-0.048-25.543-11.54-25.496-25.67 0.049-14.099 11.492-25.495 25.581-25.495h0.09l84.19 0.287C98.727 559.502 71.36 472.863 71.36 383.281c0-58.982 11.557-116.214 34.352-170.105 22.01-52.04 53.515-98.77 93.64-138.895 40.124-40.125 86.855-71.63 138.896-93.64 53.891-22.795 111.123-34.352 170.105-34.352 66.328 0 130.044 14.488 189.377 43.062 12.73 6.13 18.08 21.42 11.95 34.148s-21.417 18.078-34.146 11.95z"  horiz-adv-x="1024" />

    
    <glyph glyph-name="yanzhengma" unicode="&#58881;" d="M509.29664-102.468267c-147.4048 0-421.638827 218.118827-421.638827 424.359254V715.636053c0 9.536853 8.045227 17.257813 18.036054 17.452374l23.872853 0.38912c0.91136 0 94.52544 1.880747 191.064747 39.8336 99.068587 38.8608 162.90816 83.561813 163.556693 84.0192l14.144853 9.925973a19.063467 19.063467 0 0 0 10.898774 3.437227c3.82976 0 7.656107-1.102507 10.837333-3.372374l14.336-9.990826c0.648533-0.453973 64.556373-45.154987 163.556693-84.0192 96.60416-37.952853 190.221653-39.8336 191.194454-39.8336l23.678293-0.38912c9.997653-0.19456 18.04288-7.91552 18.04288-17.452374l0.191147-393.741653c-0.006827-206.240427-274.240853-424.362667-421.771947-424.362667z m356.693333 772.235947c-36.263253 2.72384-112.49664 12.004693-191.71328 43.144533-80.964267 31.788373-140.455253 67.47136-164.980053 83.24096-24.459947-15.704747-84.0192-51.452587-164.918613-83.24096-79.086933-31.074987-155.12576-40.352427-191.8464-43.144533v-347.876693c0-161.7408 238.87872-359.48544 356.765013-359.48544 45.677227 0 134.683307 36.78208 222.208 117.620053 84.33664 77.858133 134.68672 168.297813 134.68672 241.865387l-0.201387 347.876693zM475.4944 255.78496a32.11264 32.11264 0 0 0-22.89664-9.536853 32.365227 32.365227 0 0 0-22.96832 9.536853l-97.317547 97.24928c-12.649813 12.71808-12.649813 33.215147 0 45.868373 12.71808 12.71808 33.21856 12.71808 45.868374 0l74.417493-74.35264 187.88352 187.890347c12.711253 12.714667 33.211733 12.714667 45.868373 0 12.711253-12.653227 12.711253-33.153707 0-45.868373l-210.855253-210.786987z"  horiz-adv-x="1024" />

    
    <glyph glyph-name="iconfont-mima" unicode="&#58913;" d="M1071.682193 501.200591c7.567155 11.630265 5.040183 27.117215-5.024701 36.156861-11.32751 9.039645-26.444618 6.464507-35.258917-5.167478-1.250585-1.279828-141.001263-170.420105-307.179357-170.420104-161.108668 0-307.160435 170.420105-308.4093 171.715414-8.816019 10.334955-25.197473 11.614783-35.260637 2.59234-10.078645-9.039645-11.32751-25.821906-2.526972-36.156861 2.526972-3.872168 32.733665-38.733719 80.570676-77.465717l-64.202984-68.441553c-10.078645-10.319473-8.798817-27.118936 1.264347-36.156861 2.51149-5.151996 8.798817-7.742615 15.103346-7.742615 6.304529 0 12.590136 2.59234 17.630318 7.759817l69.243167 73.59527c32.733665-23.246768 71.754657-45.196506 114.551485-60.683457l-26.430856-91.67284c-3.775837-14.207123 3.775837-28.414245 17.614836-32.284692h7.567155c11.32751 0 21.390673 7.744335 23.917646 19.359118l26.430856 91.67284c20.159011-3.872168 41.549684-6.447305 62.940357-6.447306 21.406155 0 42.81231 2.576858 62.95756 6.462787l26.429136-90.393011c2.526972-11.614783 13.854482-19.359118 23.919365-19.359119 2.525252 0 5.040183 0 6.302809 1.279828 13.83728 3.88765 21.404435 18.07929 17.632039 32.286413l-26.449779 90.393012c42.81403 15.486951 81.836742 37.436689 114.553206 60.666255l67.994302-72.313722c5.040183-5.151996 11.32751-7.727133 17.614836-7.727133 6.302809 0 12.590136 2.575138 17.630319 7.744335 10.080366 10.334955 10.080366 25.821906 1.262626 36.156861l-64.216745 68.426072c51.611128 38.733719 81.8161 76.185889 81.8161 76.185889l0.013761-0.020643z"  horiz-adv-x="1448" />

    
    <glyph glyph-name="solidArrow-right" unicode="&#58896;" d="M378.3329999999998 40.00199999999995l427.0010000000001 354.9999999999999-427.00099999999986 356.00000000000017-1.7053025658242404e-13-711z"  horiz-adv-x="1024" />

    
    <glyph glyph-name="ic_hyperlink" unicode="&#58903;" d="M931.356444 539.420444l-278.812444-346.908444c-17.066667-20.366222-47.616-23.779556-71.452444-6.826667l-135.964445 112.241778c-20.48 17.066667-23.893333 47.616-6.826667 71.452445l278.812445 346.851555c17.066667 20.423111 47.616 23.836444 71.452444 6.826667l135.964445-112.241778c20.48-17.009778 23.893333-47.616 6.826666-71.395556m23.836445 108.828445l-136.021333 112.184889c-44.202667 34.019556-105.415111 27.192889-139.434667-13.596445L400.867556 399.985778c-34.019556-44.202667-27.192889-105.415111 13.653333-139.434667l135.964444-112.241778c44.202667-34.019556 105.415111-27.192889 139.434667 13.653334l278.869333 346.851555c37.432889 44.202667 30.606222 105.415111-13.653333 139.377778m-527.075556-472.689778l-149.617777-186.993778c-17.009778-20.48-47.616-23.836444-64.625778-10.24l-146.204445 119.011556c-20.423111 17.066667-20.423111 44.259556-3.413333 68.039111l282.282667 346.851556c16.952889 20.48 47.559111 23.836444 64.568889 10.24l13.653333-10.24c10.183111-10.183111 27.192889-6.826667 33.962667 3.413333 10.24 10.24 6.826667 27.192889-3.413334 34.019556l-13.596444 10.24c-40.789333 33.962667-102.001778 23.779556-135.964445-17.066667L23.352889 195.925333c-34.019556-40.789333-30.606222-102.001778 10.183111-136.021333l146.204444-119.011556c40.846222-34.019556 102.058667-23.836444 136.078223 17.009778l149.617777 186.993778c10.24 10.24 6.826667 27.249778-3.413333 34.019556-10.24 10.24-23.779556 6.826667-34.019555-3.413334m149.617777 261.859556l-10.183111 6.826666c-10.24 10.24-27.192889 6.826667-34.019555-3.413333-10.183111-10.24-6.826667-27.192889 3.413333-34.019555l10.24-6.826667c20.366222-16.952889 20.366222-44.145778 3.413333-67.982222l-13.653333-17.009778c-10.24-10.24-6.826667-27.192889 3.413333-34.019556 10.24-10.183111 27.192889-6.826667 34.019556 3.413334l13.596444 17.066666c34.019556 40.732444 30.606222 102.001778-10.24 135.964445"  horiz-adv-x="1024" />

    
    <glyph glyph-name="ic_parting_line" unicode="&#58905;" d="M781.027556 782.222222l-211.968-211.968h60.928L841.955556 782.222222h-60.928z m-140.288 0L428.828444 570.254222h60.871112L701.724444 782.222222h-60.871111zM500.394667 782.222222L288.426667 570.254222h60.928L561.322667 782.222222H500.394667zM360.220444 782.222222l-197.404444-197.404444v-14.563556h46.364444L421.148444 782.222222h-60.871111zM220.501333 782.222222L162.872889 724.593778v-60.359111L280.860444 782.222222h-60.302222z m488.846223-211.968h60.871111l134.485333 134.428445V765.610667l-195.356444-195.356445z m140.231111 0h55.125333v55.125334l-55.125333-55.125334zM56.888889 411.306667h953.799111v52.963555H56.888889v-52.906666z m803.612444-105.984l-264.931555-264.931556h60.928l248.206222 248.206222v16.725334h-44.202667z m-140.288 0L455.281778 40.391111h60.984889l264.931555 264.931556H720.213333z m-140.288 0L314.993778 40.391111h60.928l264.931555 264.931556h-60.928z m-140.231111 0L174.762667 40.391111h60.871111L500.622222 305.322667H439.694222z m-139.719111 0l-137.102222-137.102223v-60.359111l197.461333 197.461334h0.056889-60.416z m-137.102222 0v-57.799111l57.799111 57.799111H162.872889z m572.928-264.931556h60.928l107.975111 107.918222V209.351111l-168.903111-168.903111z m140.288 0h28.615111v28.615111l-28.615111-28.615111z"  horiz-adv-x="1024" />

    
    <glyph glyph-name="ic_appreciate_grey" unicode="&#58912;" d="M945.371429 520.411429h-250.148572C792.137143 876.470857 628.443429 894.683429 628.443429 894.683429c-69.339429 0-55.003429-54.564571-60.196572-63.634286 0-174.153143-185.929143-310.637714-185.929143-310.637714v-493.787429c0-48.786286 66.779429-66.340571 92.891429-66.340571h375.881143c35.328 0 64.146286 92.306286 64.146285 92.306285 92.891429 314.514286 92.891429 408.064 92.891429 408.064 0.073143 64.950857-62.756571 59.757714-62.756571 59.757715zM181.174857 520.2651430000001H31.378286C0.512 520.2651430000001 0 490.057143 0 490.057143l30.939429-498.102857c0-31.670857 31.890286-31.670857 31.890285-31.670857h129.609143c27.062857 0 26.770286 20.992 26.770286 20.992V482.523429c0 38.253714-38.034286 37.741714-38.034286 37.741714z"  horiz-adv-x="1097" />

    
    <glyph glyph-name="ic_collection_forum" unicode="&#58914;" d="M509.790316 852.614737c-20.264421 0-39.019789-12.934737-56.373895-39.01979L355.112421 651.749053c-12.988632-20.264421-31.797895-34.708211-53.463579-41.930106L99.274105 547.678316c-27.486316-8.677053-44.786526-23.174737-52.008421-40.474948-7.221895-20.264421-1.455158-44.840421 17.354105-75.183157v-1.455158c21.665684-28.887579 44.732632-56.32 67.907369-85.261474 12.988632-15.898947 33.253053-43.331368 50.607158-63.59579 14.443789-17.354105 21.665684-40.421053 20.210526-62.140631l-5.766737-221.130105c-2.910316-33.253053 1.455158-56.373895 11.533474-69.362527 7.275789-8.677053 17.354105-13.042526 30.396632-13.042526 12.934737 0 28.887579 4.311579 50.553263 11.587368l170.576842 69.362527c21.665684 8.623158 47.696842 10.132211 69.362526 1.455158l198.009263-73.728c57.829053-18.809263 88.171789 5.766737 91.082106 72.272842v1.455158l-10.132211 195.098947c-1.455158 23.174737 5.766737 44.840421 18.809263 62.140632l130.048 173.487157c18.809263 25.977263 24.576 49.098105 18.809263 69.362527-5.766737 18.809263-24.576 34.708211-54.972631 46.241684h-1.401263l-177.798737 49.152a91.243789 91.243789 0 0 0-54.918737 40.421053c-30.342737 44.840421-85.261474 130.101895-117.059369 177.852631l-1.455157 2.856421c-18.809263 24.576-39.019789 37.564632-59.284211 37.564632M240.909474-124.442947c-25.977263 0-47.696842 10.132211-63.59579 27.486315-18.755368 21.665684-25.977263 54.918737-23.120842 99.705264l5.820632 219.728842c-4.311579 11.533474-7.275789 21.665684-11.587369 33.199158-39.019789 50.661053-79.494737 99.705263-118.514526 150.366315-1.455158 1.401263-2.910316 2.856421-2.910316 4.311579C1.077895 452.284632-6.251789 489.849263 5.389474 521.647158c10.132211 31.797895 37.564632 54.972632 79.494737 67.907368l203.776 62.194527c11.587368 4.311579 21.719579 11.533474 28.941473 21.665684l99.705263 163.301052C449.050947 885.867789 485.160421 896 509.844211 896c33.253053 0 66.452211-18.809263 92.483368-53.463579l1.455158-2.910316c40.421053-60.685474 79.494737-121.424842 118.514526-180.655158 7.221895-10.132211 17.354105-17.354105 28.887579-21.719579l177.798737-47.696842c1.455158 0 2.910316-1.401263 4.311579-1.401263 44.840421-15.898947 72.272842-40.474947 82.405053-75.183158 10.132211-33.253053 1.455158-69.362526-26.031158-106.927158l-130.048-176.343579a56.266105 56.266105 0 0 1-10.132211-33.253052l11.533474-198.009263c-4.311579-111.292632-78.039579-119.969684-101.160421-119.969685-14.443789 0-30.342737 2.910316-47.696842 8.623158h-1.455158l-199.410527 73.728a55.888842 55.888842 0 0 1-37.618526 0l-171.978105-69.362526c-23.174737-11.533474-43.385263-15.898947-60.739369-15.898947"  horiz-adv-x="1024" />

    
    <glyph glyph-name="ic_h" unicode="&#58917;" d="M36.571429 676.571429h78.994285v-238.445715h300.105143V676.571429h78.994286v-577.097143h-78.994286V369.371429H115.565714v-269.897143H36.571429V676.571429z m793.161142-377.929143V553.618286L649.508571 298.642286h180.297143z m1.170286-199.168V236.982857H584.192v69.12l257.755429 357.522286h59.684571v-364.982857h82.870857v-61.659429h-82.870857v-137.508571h-70.729143z"  horiz-adv-x="1024" />

    
    <glyph glyph-name="ic_close_release1" unicode="&#58918;" d="M479.36896 681.6L12.36096 150.016a46.08 46.08 0 0 1 0-63.232 41.6 41.6 0 0 1 60.608 0L511.88096 586.368l438.848-499.648a41.6 41.6 0 0 1 60.608 0 46.08 46.08 0 0 1 0 63.232L544.26496 681.6a41.344 41.344 0 0 1-32.448 12.608 41.344 41.344 0 0 1-32.448-12.608z"  horiz-adv-x="1033" />

    
    <glyph glyph-name="ic_open_release1" unicode="&#58919;" d="M479.5648 86.4L12.5568 617.984a46.08 46.08 0 0 0 0 63.232 41.6 41.6 0 0 0 60.608 0l438.848-499.648 438.848 499.648a41.6 41.6 0 0 0 60.608 0 46.08 46.08 0 0 0 0-63.232L544.4608 86.4a41.344 41.344 0 0 0-32.448-12.608 41.344 41.344 0 0 0-32.448 12.608z"  horiz-adv-x="1033" />

    
    <glyph glyph-name="yishoucang" unicode="&#58920;" d="M1003.52 494.592c-8.192 24.576-31.744 43.008-69.632 55.296-0.512 0-1.024 0.512-1.536 0.512l-207.872 51.2-135.168 187.392s-0.512 1.024-1.024 1.024c-21.504 27.648-48.64 43.008-76.288 43.008-19.968 0-48.64-7.68-75.264-45.056L321.536 616.96c-51.712-14.336-103.424-28.672-155.648-43.008L90.112 552.96c-35.328-10.24-57.856-27.136-66.048-50.176-9.216-24.064-2.56-52.224 19.456-85.504 0.512-1.024 1.024-1.536 1.536-2.56 45.568-52.224 90.624-104.448 136.192-156.672-2.56-75.264-4.608-150.528-7.168-225.792-3.584-35.84 2.56-61.44 17.408-77.824 11.776-12.288 27.648-18.432 47.616-18.432 15.36 0 33.792 3.584 58.368 11.776l200.192 74.24c75.264-25.6 151.04-51.2 227.84-76.8 14.848-4.608 28.672-6.656 40.96-6.656 28.16 0 75.776 11.776 79.872 90.624v2.56c-4.096 67.072-8.192 134.144-12.8 201.216v1.024l147.456 180.224c23.04 29.184 30.208 56.832 22.528 80.384"  horiz-adv-x="1024" />

    
    <glyph glyph-name="ic_recommended_case" unicode="&#58921;" d="M662.528 842.658909c1.629091-3.165091 3.723636-8.285091 5.864727-16.197818 30.859636-112.407273-15.36-199.912727-59.578182-253.533091l-68.328727-82.850909h372.410182c27.927273 0 50.734545-22.807273 50.734545-50.734546v-304.174545c-0.186182-30.673455-76.334545-202.798545-202.798545-202.798545H101.748364c-27.927273 0-50.641455 22.807273-50.641455 50.734545V439.342545c0 27.927273 22.760727 50.734545 50.688 50.734546h224.349091l14.056727 11.450182c49.943273 41.053091 119.156364 102.725818 165.003637 164.119272l15.080727 20.38691c69.12 94.254545 116.968727 146.850909 142.242909 156.625454z m5.259636 52.270546c-63.441455 0-159.371636-140.288-203.217454-198.935273-42.589091-56.971636-107.845818-115.246545-156.532364-155.275637H101.794909A101.376 101.376 0 0 1 0.418909 439.389091v-456.238546a101.376 101.376 0 0 1 101.376-101.422545h659.037091c158.394182 0 253.486545 197.492364 253.486545 253.486545V439.389091a101.376 101.376 0 0 1-101.422545 101.376h-264.936727c47.709091 57.856 106.821818 162.443636 69.352727 299.194182-10.798545 39.424-28.392727 54.970182-49.524364 55.016727zM710.144 337.92h253.486545v-50.641455h-253.486545V337.92z m0-202.752h253.486545v-50.688h-253.486545v50.734545zM203.170909 490.030545h50.734546v-557.614545h-50.734546V489.984z m-106.123636-391.307636h50.688v-50.734545h-50.734546v50.734545z"  horiz-adv-x="1024" />

    
    <glyph glyph-name="ic_scene" unicode="&#58925;" d="M495.160889 415.459556c-120.035556 0-215.722667 138.410667-217.884445 257.422222C274.944 793.315556 369.948444 893.212444 489.073778 895.488l4.152889 0.056889c116.849778 0 213.731556-96.142222 215.950222-214.471111 2.275556-120.888889-89.486222-263.224889-211.114667-265.614222h-2.958222zM493.226667 847.985778l-3.185778-0.056889C398.051556 846.165333 324.551111 768 326.371556 673.735111c1.706667-94.833778 79.985778-210.716444 168.732444-210.716444l2.048 0.056889c89.884444 1.706667 164.693333 120.888889 162.929778 217.201777-1.706667 92.444444-76.515556 167.708444-166.798222 167.708445zM843.662222-80.213333H142.791111c-24.007111 0-45.454222 8.988444-61.952 25.998222a79.075556 79.075556 0 0 0-22.983111 61.44c3.470222 54.272 11.832889 115.313778 23.324444 199.793778l11.150223 80.896c9.329778 34.474667 44.771556 75.946667 100.579555 85.504l136.078222 23.438222c22.186667 3.925333 43.804444-5.290667 57.287112-23.495111l106.951111-145.578667 106.951111 145.578667c13.425778 18.204444 34.872889 27.306667 57.287111 23.495111l136.021333-23.438222c55.808-9.557333 91.249778-50.972444 100.636445-85.447111l0.568889-3.015112 10.638222-78.620444c11.491556-84.138667 19.797333-144.952889 23.210666-199.111111 1.479111-23.267556-6.428444-44.544-22.983111-61.44-16.497778-17.009778-37.888-25.998222-61.895111-25.998222zM140.288 277.162667l-10.410667-76.401778c-11.377778-83.512889-19.626667-143.815111-22.926222-196.437333a32.540444 32.540444 0 0 1 9.671111-25.941334 34.247111 34.247111 0 0 1 26.168889-10.979555h700.871111c10.524444 0 18.773333 3.470222 26.168889 10.979555a32.369778 32.369778 0 0 1 9.671111 25.998222c-3.356444 52.451556-11.548444 112.526222-22.926222 195.697778l-10.410667 77.084445c-5.12 16.440889-25.6 43.235556-61.269333 49.436444l-136.078222 23.438222c-5.973333-0.056889-7.623111-3.015111-8.647111-4.323555L493.226667 145.692444 346.168889 345.713778c-0.910222 1.308444-3.584 4.437333-7.281778 4.437333l-137.329778-23.552c-35.783111-6.144-56.263111-32.995556-61.269333-49.493333z"  horiz-adv-x="1024" />

    
    <glyph glyph-name="ic_transformation" unicode="&#58929;" d="M627.5072 753.732267c104.584533-10.513067 188.552533-73.5232 206.4384-181.521067h-60.484267l97.621334-145.544533 97.826133 145.476266h-67.447467c-17.885867 145.476267-128 240.162133-267.0592 253.610667-19.182933 1.501867-37.137067-15.018667-37.137066-36.0448 1.2288-18.0224 13.653333-34.4064 30.242133-35.976533zM476.16 827.323733H136.055467c-19.182933 0-34.338133-16.520533-34.338134-37.546666v-324.061867c0-21.026133 15.018667-37.546667 34.338134-37.546667h339.968c19.2512 0 34.338133 16.5888 34.338133 37.546667V789.777067c0 21.026133-15.018667 37.546667-34.338133 37.546666h0.136533v0.068267z m-66.218667-825.344c-116.9408 10.581333-206.4384 88.610133-210.670933 217.634134h64.7168l-97.621333 145.544533-97.6896-145.408h64.7168c2.730667-166.570667 119.671467-274.6368 269.789866-289.655467 19.2512-1.570133 37.137067 15.018667 37.137067 36.0448a35.908267 35.908267 0 0 1-30.3104 36.0448l-0.068267-0.136533z m492.885334 325.700267c17.8176 0 34.269867-16.5888 34.269866-37.546667v-325.632c0-20.8896-15.018667-37.410133-34.338133-37.410133h-339.968c-19.387733 0-34.4064 16.520533-34.4064 37.546667V290.133333c0 20.8896 15.018667 37.4784 34.4064 37.4784h339.968v0.068267z m-50.312534-60.142933H612.829867c-13.653333 0-24.302933-11.741867-24.302934-26.4192v-229.717334c0-14.7456 10.6496-26.487467 24.302934-26.487466h239.752533c13.585067 0 24.234667 11.741867 24.234667 26.487466V241.117867c0 14.677333-11.605333 26.4192-24.1664 26.4192h-0.136534zM426.1888 767.863467c12.6976 0 24.302933-11.741867 24.234667-26.487467V511.658667c0-14.813867-10.6496-26.487467-24.234667-26.487467H186.299733c-13.585067 0-24.234667 11.6736-24.234666 26.487467V741.376c0 14.7456 10.6496 26.487467 24.234666 26.487467h239.889067z"  horiz-adv-x="1024" />

    
    <glyph glyph-name="ic_complete" unicode="&#58937;" d="M383.232 80.896L76.096 388.8a41.92 41.92 0 0 0 0 59.008 41.92 41.92 0 0 0 59.008 0l286.912-287.68 537.408 531.776a40.96 40.96 0 0 0 58.24 0 40 40 0 0 0 0-57.408l-557.696-553.6c-26.624-25.856-56.512-20.16-76.8 0z"  horiz-adv-x="1030" />

    
    <glyph glyph-name="ic_copy" unicode="&#58938;" d="M0.6144-60.0064h742.536533V682.530133H0.6144v-742.536533zM55.569067 627.575467h632.558933V-5.12H55.569067V627.575467zM240.913067 895.317333a27.511467 27.511467 0 0 1 0-54.954666h660.0704v-660.0704a27.511467 27.511467 0 1 1 54.954666 0V895.317333H240.981333z"  horiz-adv-x="1024" />

    
    <glyph glyph-name="ic_display_comment" unicode="&#58939;" d="M512.877714 180.150857c-105.252571 0-190.464 87.405714-190.464 195.145143 0 107.885714 85.211429 195.291429 190.464 195.291429 105.179429 0 190.390857-87.405714 190.390857-195.291429 0-107.739429-85.211429-195.145143-190.390857-195.145143m0 496.420572C229.595429 676.571429 0 375.296 0 375.296s229.668571-301.129143 512.877714-301.129143c283.209143 0 512.804571 301.129143 512.804572 301.129143S796.086857 676.571429 512.877714 676.571429"  horiz-adv-x="1025" />

    
    <glyph glyph-name="sanjiaoxing1" unicode="&#58940;" d="M891.904 193.024L514.048 599.04l-384-403.968 761.856-2.048z"  horiz-adv-x="1024" />

    
    <glyph glyph-name="youjiantou" unicode="&#58887;" d="M33.983285559835394 341.37896715588477L844.3269608823044 341.37896715588477 637.3996785040327 142.17610834172842c-5.296905397201645-5.298286238024694-5.296905397201645-13.885735316543212 4.905732080279064e-15-19.185402395390945l41.56330877366258-41.564689614485566a13.569522768065841 13.569522768065841 0 0 1 19.186783236213994 9.811464160558128e-15l260.49009790419734 250.77312103242812c0.2996424586008229 0.2526938706172841 0.5965232355555554 0.5136727861728396 0.879595604279835 0.7953643140740744l1.3918875496296288 1.39188754962963 40.174182905679 38.67320893102883a13.530859225020574 13.530859225020574 0 0 1 3.9381580273250956 10.328689356378598 13.523955020905348 13.523955020905348 0 0 1-3.935396345679019 10.353544491193414l-41.56607045530864 40.06509648065842c-0.2692639604938272 0.26374059720164594-0.5495746475720168 0.5109111045267488-0.8312661754732514 0.7511774077366251l-260.53980817382717 250.8159270979422a13.56676108641975 13.56676108641975 0 0 1-19.186783236213994-9.811464160558128e-15l-41.56607045530862-41.56607045530865c-5.296905397201645-5.296905397201647-5.296905397201645-13.885735316543212 9.811464160558128e-15-19.186783236213994L842.3854986851029 427.28797896164633l-808.3994514436214-3.139668531378601e-13c-7.492442305843622-2.452866040139532e-15-13.565380245596698-6.072937939753094-13.565380245596698-13.56399940477367l2.4528660401395314e-14-58.783774677860066c4.292515570244181e-15-7.489680624197531 6.072937939753094-13.565380245596698 13.565380245596714-13.565380245596698l-0.002761681646090537 0.004142522469135801z"  horiz-adv-x="1024" />

    
    <glyph glyph-name="shanchu" unicode="&#58950;" d="M512 896C228.072727 896 0 667.927273 0 384s228.072727-512 512-512 512 228.072727 512 512S795.927273 896 512 896zM726.109091 169.890909c-13.963636-13.963636-37.236364-13.963636-51.2 0l-162.909091 162.909091-162.909091-162.909091c-13.963636-13.963636-37.236364-13.963636-51.2 0-13.963636 13.963636-13.963636 37.236364 0 51.2l162.909091 162.909091-162.909091 162.909091c-13.963636 13.963636-13.963636 37.236364 0 51.2 13.963636 13.963636 37.236364 13.963636 51.2 0l162.909091-162.909091 162.909091 162.909091c13.963636 13.963636 37.236364 13.963636 51.2 0 13.963636-13.963636 13.963636-37.236364 0-51.2l-162.909091-162.909091 162.909091-162.909091c18.618182-13.963636 18.618182-39.563636 0-51.2z"  horiz-adv-x="1024" />

    
    <glyph glyph-name="huifu1" unicode="&#58947;" d="M0 53.76C140.8 303.104 326.656 322.56 594.944 322.56v-243.2l429.056 358.4-429.056 387.072v-214.528C96.256 610.304 0 53.76 0 53.76z"  horiz-adv-x="1024" />

    
    <glyph glyph-name="xia" unicode="&#58948;" d="M484.864 862.72v-810.496l-199.168 206.848c-5.12 5.12-13.824 5.12-18.944 0l-41.472-41.472c-5.12-5.12-5.12-13.824 0-18.944l250.88-260.608c0-0.512 0.512-0.512 1.024-1.024l1.536-1.536 38.912-39.936c2.56-2.56 6.656-4.096 10.24-4.096 4.096 0 7.68 1.024 10.24 4.096l39.936 41.472c0.512 0.512 0.512 0.512 0.512 1.024l250.88 260.608c5.12 5.12 5.12 13.824 0 18.944l-41.472 41.472c-5.12 5.12-13.824 5.12-18.944 0l-197.12-204.8V862.72c0 7.68-6.144 13.312-13.312 13.312H499.712c-8.704 0.512-14.848-5.632-14.848-13.312z"  horiz-adv-x="1024" />

    
    <glyph glyph-name="shang" unicode="&#58951;" d="M555.008-95.232V714.752l199.168-206.848c5.12-5.12 13.824-5.12 18.944 0l41.472 41.472c5.12 5.12 5.12 13.824 0 18.944l-250.88 260.608c0 0.512-0.512 0.512-1.024 1.024l-1.536 1.536-38.912 39.936c-2.56 2.56-6.656 4.096-10.24 4.096-4.096 0-7.68-1.024-10.24-4.096l-39.936-41.472c-0.512-0.512-0.512-0.512-0.512-1.024L210.432 568.32c-5.12-5.12-5.12-13.824 0-18.944l41.472-41.472c5.12-5.12 13.824-5.12 18.944 0l197.12 204.8v-808.448c0-7.68 6.144-13.312 13.312-13.312h58.88c8.704 0 14.848 6.144 14.848 13.824z"  horiz-adv-x="1024" />

    
    <glyph glyph-name="minus" unicode="&#58952;" d="M512-128C229.376-128 0 101.376 0 384S229.376 896 512 896s512-229.376 512-512-229.376-512-512-512z m0 983.04C252.416 855.04 40.96 643.584 40.96 384s211.456-471.04 471.04-471.04 471.04 211.456 471.04 471.04-211.456 471.04-471.04 471.04z m20.48-450.56h184.32c11.264 0 20.48-9.216 20.48-20.48s-9.216-20.48-20.48-20.48H307.2c-11.264 0-20.48 9.216-20.48 20.48s9.216 20.48 20.48 20.48h184.32"  horiz-adv-x="1024" />

    


  </font>
</defs>
</svg>
